# xmcd CD database file
#
# Track frame offsets:
#	150
#	21069
#	42920
#	61367
#	84485
#	107207
#	127120
#	151892
#	165630
#	189215
#	211202
#	230707
#	249220
#	265270
#	285922
#
# Disc length: 4080 seconds
#
# Revision: 2
# Processed by: cddbd v1.5.2PL0 Copyright (c) Steve Scherf et al.
# Submitted via: NeoAudio 9.9.9
#
DISCID=c30fee0f
DTITLE=滾石唱片 - 情牽女人心2
DYEAR=1997
DGENRE=國語流行
TTITLE0=李宗盛林憶蓮 - 當愛已成往事
TTITLE1=辛曉琪 - 領悟
TTITLE2=陳淑樺 - 夢醒時分
TTITLE3=萬芳 - 試著了解
TTITLE4=張艾嘉 - 愛的代價
TTITLE5=趙詠華 - 最浪漫的事
TTITLE6=許\景淳 - 玫瑰人生
TTITLE7=齊豫潘越雲 - 夢田
TTITLE8=金智娟 - 大雨
TTITLE9=萬芳 - 猜心
TTITLE10=林憶蓮 - 不必在乎我是誰
TTITLE11=蘇慧倫 - 我一個人住
TTITLE12=潘越雲 - 天天天藍
TTITLE13=陳淑樺 - 無言的表示
TTITLE14=李度 - 明天我要嫁給你啦
EXTD=YEAR: 1997
EXTT0=
EXTT1=
EXTT2=
EXTT3=
EXTT4=
EXTT5=
EXTT6=
EXTT7=
EXTT8=
EXTT9=
EXTT10=
EXTT11=
EXTT12=
EXTT13=
EXTT14=
PLAYORDER=
